<svg width="40" height="40" viewBox="0 0 40 40" fill="none" xmlns="http://www.w3.org/2000/svg">
<path d="M16.6668 30C19.6251 29.9994 22.4982 29.0091 24.8285 27.1867L32.1552 34.5134L34.5118 32.1567L27.1852 24.83C29.0085 22.4995 29.9995 19.6258 30.0002 16.6667C30.0002 9.31504 24.0185 3.33337 16.6668 3.33337C9.31516 3.33337 3.3335 9.31504 3.3335 16.6667C3.3335 24.0184 9.31516 30 16.6668 30ZM16.6668 6.66671C22.1818 6.66671 26.6668 11.1517 26.6668 16.6667C26.6668 22.1817 22.1818 26.6667 16.6668 26.6667C11.1518 26.6667 6.66683 22.1817 6.66683 16.6667C6.66683 11.1517 11.1518 6.66671 16.6668 6.66671Z" fill="white"/>
</svg>
