<svg width="30" height="30" viewBox="0 0 30 30" fill="none" xmlns="http://www.w3.org/2000/svg">
<path d="M1.25 12.4975C0.918479 12.4975 0.600537 12.3658 0.366117 12.1314C0.131696 11.897 0 11.579 0 11.2475V1.25C0 0.918479 0.131696 0.600537 0.366117 0.366117C0.600537 0.131696 0.918479 0 1.25 0H11.25C11.5815 0 11.8995 0.131696 12.1339 0.366117C12.3683 0.600537 12.5 0.918479 12.5 1.25V11.2475C12.5 11.579 12.3683 11.897 12.1339 12.1314C11.8995 12.3658 11.5815 12.4975 11.25 12.4975H1.25ZM18.75 12.4975C18.4185 12.4975 18.1005 12.3658 17.8661 12.1314C17.6317 11.897 17.5 11.579 17.5 11.2475V1.25C17.5 0.918479 17.6317 0.600537 17.8661 0.366117C18.1005 0.131696 18.4185 0 18.75 0H28.7475C29.079 0 29.397 0.131696 29.6314 0.366117C29.8658 0.600537 29.9975 0.918479 29.9975 1.25V11.2475C29.9975 11.579 29.8658 11.897 29.6314 12.1314C29.397 12.3658 29.079 12.4975 28.7475 12.4975H18.75ZM1.25 29.9975C0.918479 29.9975 0.600537 29.8658 0.366117 29.6314C0.131696 29.397 0 29.079 0 28.7475V18.7475C0 18.416 0.131696 18.098 0.366117 17.8636C0.600537 17.6292 0.918479 17.4975 1.25 17.4975H11.25C11.5815 17.4975 11.8995 17.6292 12.1339 17.8636C12.3683 18.098 12.5 18.416 12.5 18.7475V28.7475C12.5 29.079 12.3683 29.397 12.1339 29.6314C11.8995 29.8658 11.5815 29.9975 11.25 29.9975H1.25ZM18.75 29.9975C18.4185 29.9975 18.1005 29.8658 17.8661 29.6314C17.6317 29.397 17.5 29.079 17.5 28.7475V18.7475C17.5 18.416 17.6317 18.098 17.8661 17.8636C18.1005 17.6292 18.4185 17.4975 18.75 17.4975H28.7475C29.079 17.4975 29.397 17.6292 29.6314 17.8636C29.8658 18.098 29.9975 18.416 29.9975 18.7475V28.7475C29.9975 29.079 29.8658 29.397 29.6314 29.6314C29.397 29.8658 29.079 29.9975 28.7475 29.9975H18.75Z" fill="white"/>
</svg>
